<?xml version="1.0" standalone="no"?>
<!DOCTYPE svg PUBLIC "-//W3C//DTD SVG 20010904//EN"
 "http://www.w3.org/TR/2001/REC-SVG-20010904/DTD/svg10.dtd">
<svg version="1.0" xmlns="http://www.w3.org/2000/svg"
 width="775.000000pt" height="775.000000pt" viewBox="0 0 775.000000 775.000000"
 preserveAspectRatio="xMidYMid meet">
<metadata>
Created by potrace 1.14, written by Peter Selinger 2001-2017
</metadata>
<g transform="translate(0.000000,775.000000) scale(0.100000,-0.100000)"
fill="#000000" stroke="none">
<path d="M4072 7657 c-14 -17 -36 -408 -29 -524 6 -99 18 -133 46 -133 34 0
45 28 42 102 l-2 71 77 -67 c83 -71 115 -86 139 -66 28 23 15 46 -62 115 -43
37 -79 71 -80 74 -1 3 30 33 69 66 80 68 101 95 92 118 -16 42 -55 27 -154
-58 -35 -30 -68 -55 -72 -55 -4 0 -5 76 -1 170 5 130 3 173 -7 185 -15 18 -44
20 -58 2z"/>
<path d="M3182 7638 c-7 -7 -12 -34 -12 -61 0 -68 46 -288 75 -362 14 -34 25
-71 25 -82 0 -50 67 -69 114 -32 47 37 69 95 69 179 -1 153 -77 242 -156 180
l-25 -20 -6 37 c-3 21 -8 61 -12 88 -4 28 -11 58 -16 68 -10 20 -39 22 -56 5z
m182 -290 c9 -34 7 -121 -3 -136 -12 -20 -21 19 -21 96 0 62 12 82 24 40z"/>
<path d="M2503 7534 c-5 -15 0 -91 14 -198 6 -48 6 -49 -19 -43 -76 19 -134
-129 -95 -243 25 -72 124 -104 172 -55 l25 24 25 -25 c32 -32 65 -19 65 26 0
34 -107 486 -121 513 -12 21 -58 22 -66 1z m31 -398 c-11 -66 -15 -76 -28 -76
-14 0 -36 49 -36 81 0 10 5 30 10 45 l11 27 24 -23 c19 -17 23 -30 19 -54z"/>
<path d="M4992 7488 c-7 -7 -12 -19 -12 -28 0 -40 61 -55 80 -21 13 25 13 27
-6 45 -18 19 -45 21 -62 4z"/>
<path d="M5205 7388 c-38 -120 -111 -414 -119 -478 -8 -68 7 -96 47 -86 28 7
31 14 42 99 3 26 10 47 14 47 5 0 26 -26 49 -57 61 -87 95 -117 126 -109 40
10 32 39 -34 128 -33 44 -57 84 -55 89 3 4 42 27 86 51 92 49 113 68 105 96
-12 38 -38 35 -139 -18 -54 -28 -101 -49 -104 -46 -3 2 14 77 38 166 46 174
46 192 -4 198 -24 3 -27 -2 -52 -80z"/>
<path d="M3796 7438 c-8 -13 -22 -56 -30 -97 -9 -41 -20 -79 -25 -84 -10 -10
-26 33 -37 98 -12 74 -53 108 -84 70 -26 -31 15 -192 60 -237 32 -32 58 -35
102 -12 l31 16 -6 -73 c-6 -88 -13 -109 -37 -109 -21 0 -48 29 -80 88 -21 40
-30 47 -55 47 -25 0 -30 -4 -33 -28 -4 -37 32 -107 80 -154 34 -33 45 -38 84
-38 40 0 50 5 79 36 27 29 35 49 41 95 10 82 -3 339 -18 372 -17 35 -52 40
-72 10z"/>
<path d="M2906 7360 c-63 -19 -96 -76 -96 -165 0 -66 16 -100 65 -143 44 -39
74 -47 118 -33 64 22 105 92 72 125 -27 26 -52 19 -74 -21 -15 -29 -42 -29
-69 0 -31 33 -27 44 13 39 67 -8 108 23 120 89 10 59 -45 121 -103 118 -9 0
-30 -5 -46 -9z m64 -94 c0 -22 -19 -30 -35 -16 -22 18 -18 30 10 30 15 0 25
-6 25 -14z"/>
<path d="M4613 7346 c-17 -8 -45 -33 -62 -56 -57 -78 -51 -182 14 -247 28 -28
40 -33 83 -33 61 0 105 34 100 77 -5 42 -31 52 -68 24 -17 -12 -38 -20 -46
-17 -14 6 -49 74 -41 82 2 2 21 -5 43 -16 46 -24 77 -20 116 17 48 46 46 124
-4 157 -35 23 -98 28 -135 12z m82 -95 c0 -23 -23 -24 -35 -1 -10 19 -9 21 12
18 13 -2 23 -9 23 -17z"/>
<path d="M4950 7340 c-6 -11 -27 -88 -46 -171 -38 -162 -36 -179 12 -179 31 0
35 10 79 188 27 109 33 147 25 162 -14 26 -56 26 -70 0z"/>
<path d="M2130 7190 c-11 -11 -20 -27 -20 -35 0 -11 -11 -15 -35 -15 -111 0
-126 -191 -24 -294 35 -35 43 -38 77 -33 25 4 46 17 67 41 24 27 34 32 48 25
22 -13 57 5 57 29 0 31 -99 276 -117 289 -23 17 -30 16 -53 -7z m-9 -161 c16
-16 19 -30 17 -72 -4 -62 -22 -69 -49 -17 -23 43 -26 110 -4 110 8 0 24 -9 36
-21z"/>
<path d="M5668 7061 c-112 -71 -136 -256 -42 -330 30 -24 101 -29 137 -10 70
36 127 135 127 220 0 127 -114 188 -222 120z m116 -66 c23 -24 28 -51 16 -96
-15 -53 -70 -112 -102 -107 -62 9 -58 124 7 186 38 35 56 39 79 17z"/>
<path d="M1707 6993 c-20 -5 -47 -52 -47 -83 0 -24 -8 -25 -34 -5 -47 36 -98
10 -117 -60 l-11 -37 -32 35 c-25 27 -38 35 -54 30 -31 -8 -39 -47 -16 -76 11
-13 45 -58 76 -99 74 -98 110 -128 154 -128 47 0 53 22 22 79 -28 49 -61 151
-53 159 6 7 4 10 60 -76 52 -80 82 -97 115 -67 22 20 25 43 10 77 -17 38 -39
148 -30 148 5 0 29 -36 54 -79 46 -80 70 -111 87 -111 5 0 18 9 29 20 l20 20
-21 43 c-44 87 -120 194 -144 205 -27 12 -37 13 -68 5z"/>
<path d="M3445 6815 c-438 -44 -833 -160 -1210 -354 -346 -178 -602 -367 -881
-652 -571 -583 -899 -1334 -944 -2158 -45 -830 212 -1628 736 -2286 113 -141
368 -396 509 -509 415 -330 883 -554 1390 -664 407 -89 851 -102 1250 -36
1078 177 1990 848 2475 1822 248 497 362 1020 347 1587 -10 386 -77 732 -208
1083 -169 453 -426 849 -774 1197 -433 434 -942 724 -1544 881 -351 91 -786
125 -1146 89z m1722 -3086 c99 -37 153 -181 104 -277 -76 -148 -276 -148 -351
-2 -26 52 -33 101 -20 149 13 49 62 109 105 127 37 16 123 18 162 3z m-2619
-93 c37 -20 88 -75 102 -111 15 -37 14 -123 -1 -162 -22 -58 -107 -123 -160
-121 -46 1 -94 21 -128 52 -106 99 -90 260 34 337 36 23 114 25 153 5z m1584
-277 c44 -32 52 -81 28 -174 -75 -294 -335 -391 -533 -199 -127 123 -194 297
-137 354 11 11 30 20 41 20 23 0 84 -57 153 -143 50 -63 111 -107 148 -107 42
0 73 37 97 115 27 87 53 129 94 149 36 18 68 14 109 -15z"/>
</g>
</svg>
